<svg xmlns="http://www.w3.org/2000/svg" viewBox="0 0 640 318" width="640" height="318" role="img" aria-labelledby="title desc">
<title id="title">포즈 트래킹을 쓰는 프로그램 세 가지: 영상에서 관절을 찾아 동작을 알아봐요</title>
<desc id="desc">피트니스 앱은 운동하는 모습을, 스포츠 분석 프로그램은 경기 영상을, 몸짓 게임은 내 몸짓을 카메라로 받는다. 세 줄 모두 가운데에서 영상 속 사람의 관절 33개를 찾고, 그 위치로 자세 고쳐 주기, 동작 비교하기, 캐릭터 움직이기를 한다. 사이트가 직접 그린 그림.</desc>
<defs>
<marker id="arrow" viewBox="0 0 10 10" refX="9" refY="5" markerWidth="7" markerHeight="7" orient="auto-start-reverse">
<path d="M0 0 L10 5 L0 10 Z" fill="#4a5361"/>
</marker>
<symbol id="skeleton" viewBox="0 0 40 44">
<g fill="none" stroke="#ffffff" stroke-width="2.4" stroke-linecap="round" stroke-linejoin="round">
<path d="M13 16 H27 L25 30 H15 Z"/>
<path d="M13 16 L9 25 L7 33"/>
<path d="M27 16 L31 25 L33 33"/>
<path d="M15 30 L14 42"/>
<path d="M25 30 L26 42"/>
</g>
<circle cx="20" cy="7" r="5" fill="#ffffff"/>
</symbol>
</defs>
<rect width="640" height="318" fill="#ffffff"/>
<g font-family="'Pretendard', 'Apple SD Gothic Neo', 'Malgun Gothic', 'Noto Sans KR', 'Noto Sans CJK KR', sans-serif" text-anchor="middle">
<text x="235" y="26" font-size="16" font-weight="600" fill="#4a5361">받아들이는 것</text>
<text x="395" y="26" font-size="16" font-weight="600" fill="#4a5361">찾는 것</text>
<text x="558" y="26" font-size="16" font-weight="600" fill="#4a5361">하는 일</text>

<rect x="12" y="40" width="616" height="80" rx="14" fill="#f4f6f9" stroke="#d6dde6"/>
<text x="90" y="87" font-size="19" font-weight="700" fill="#17191c">피트니스 앱</text>
<rect x="170" y="54" width="130" height="52" rx="10" fill="#ffffff" stroke="#7b8594"/>
<text x="235" y="87" font-size="17" fill="#17191c">운동하는 모습</text>
<line x1="302" y1="80" x2="336" y2="80" stroke="#4a5361" stroke-width="2.5" marker-end="url(#arrow)"/>
<rect x="340" y="52" width="110" height="56" rx="12" fill="#1f5bd6"/>
<use href="#skeleton" x="346" y="58" width="40" height="44"/>
<text x="418" y="77" font-size="16" font-weight="700" fill="#ffffff">관절</text>
<text x="418" y="98" font-size="16" font-weight="700" fill="#ffffff">33개</text>
<line x1="452" y1="80" x2="484" y2="80" stroke="#4a5361" stroke-width="2.5" marker-end="url(#arrow)"/>
<rect x="488" y="54" width="140" height="52" rx="10" fill="#eaf1fe" stroke="#5b87e0"/>
<text x="558" y="87" font-size="17" fill="#17191c">자세 고쳐 주기</text>

<rect x="12" y="132" width="616" height="80" rx="14" fill="#f4f6f9" stroke="#d6dde6"/>
<text x="90" y="179" font-size="19" font-weight="700" fill="#17191c">스포츠 분석</text>
<rect x="170" y="146" width="130" height="52" rx="10" fill="#ffffff" stroke="#7b8594"/>
<text x="235" y="179" font-size="17" fill="#17191c">경기 영상</text>
<line x1="302" y1="172" x2="336" y2="172" stroke="#4a5361" stroke-width="2.5" marker-end="url(#arrow)"/>
<rect x="340" y="144" width="110" height="56" rx="12" fill="#1f5bd6"/>
<use href="#skeleton" x="346" y="150" width="40" height="44"/>
<text x="418" y="169" font-size="16" font-weight="700" fill="#ffffff">관절</text>
<text x="418" y="190" font-size="16" font-weight="700" fill="#ffffff">33개</text>
<line x1="452" y1="172" x2="484" y2="172" stroke="#4a5361" stroke-width="2.5" marker-end="url(#arrow)"/>
<rect x="488" y="146" width="140" height="52" rx="10" fill="#eaf1fe" stroke="#5b87e0"/>
<text x="558" y="179" font-size="17" fill="#17191c">동작 비교하기</text>

<rect x="12" y="224" width="616" height="80" rx="14" fill="#f4f6f9" stroke="#d6dde6"/>
<text x="90" y="271" font-size="19" font-weight="700" fill="#17191c">몸짓 게임</text>
<rect x="170" y="238" width="130" height="52" rx="10" fill="#ffffff" stroke="#7b8594"/>
<text x="235" y="271" font-size="17" fill="#17191c">내 몸짓</text>
<line x1="302" y1="264" x2="336" y2="264" stroke="#4a5361" stroke-width="2.5" marker-end="url(#arrow)"/>
<rect x="340" y="236" width="110" height="56" rx="12" fill="#1f5bd6"/>
<use href="#skeleton" x="346" y="242" width="40" height="44"/>
<text x="418" y="261" font-size="16" font-weight="700" fill="#ffffff">관절</text>
<text x="418" y="282" font-size="16" font-weight="700" fill="#ffffff">33개</text>
<line x1="452" y1="264" x2="484" y2="264" stroke="#4a5361" stroke-width="2.5" marker-end="url(#arrow)"/>
<rect x="488" y="238" width="140" height="52" rx="10" fill="#eaf1fe" stroke="#5b87e0"/>
<text x="558" y="271" font-size="17" fill="#17191c">캐릭터 움직이기</text>
</g>
</svg>
